<svg viewBox="0 0 169 61" xmlns="http://www.w3.org/2000/svg" xml:space="preserve" style="fill-rule:evenodd;clip-rule:evenodd;stroke-linejoin:round;stroke-miterlimit:2"><path style="fill:none" d="M-.295-.286h170.03v61.435H-.295z" transform="matrix(.99346 0 0 .9899 .293 .283)"/><path d="M64.5 14.4c-1.1-.6-1.9-1.6-2.4-2.7-.5-1.3-.8-2.6-.8-4s.2-2.7.8-4c.5-1.1 1.3-2 2.4-2.7 1.2-.7 2.5-1 3.9-1 .9 0 1.8.1 2.6.4.8.3 1.5.7 2.1 1.2.5.5 1 1.1 1.3 1.8.3.7.5 1.5.5 2.3h-2.5c0-1-.4-1.9-1.1-2.5-.8-.7-1.9-1-2.9-1-.8 0-1.7.2-2.4.6-.7.4-1.2 1-1.5 1.7-.2.5-.3.9-.4 1.4-.1.6-.1 1.2-.1 1.8 0 .6 0 1.2.1 1.9.1.5.2 1 .4 1.5.3.7.8 1.3 1.5 1.7.7.4 1.6.6 2.4.6.6 0 1.2-.1 1.7-.3.5-.2.9-.4 1.3-.7.7-.7 1.1-1.6 1.1-2.6H75c0 .8-.2 1.6-.5 2.3-.3.7-.7 1.3-1.2 1.8-.6.6-1.3 1-2.1 1.2-.9.3-1.8.4-2.7.4-1.5-.1-2.8-.4-4-1.1Zm14.3.1c-.8-.5-1.4-1.2-1.8-2-.4-.8-.5-1.7-.5-2.6 0-.9.2-1.8.5-2.6.4-.8 1-1.5 1.8-2 1.8-1 4.1-1 5.9 0 .8.5 1.4 1.2 1.8 2 .3.8.5 1.7.5 2.6 0 .9-.2 1.8-.5 2.6-.4.8-1 1.5-1.8 2-1.9 1-4.1 1-5.9 0Zm4.5-1.6c.4-.2.7-.6.9-1.1.2-.6.3-1.3.3-1.9 0-.7-.1-1.3-.3-1.9-.2-.5-.5-.8-.9-1.1-1-.5-2.1-.5-3.1 0-.4.3-.7.6-.9 1.1-.3.6-.4 1.3-.3 2 0 .7.1 1.3.3 1.9.2.4.5.8.9 1.1.9.5 2.1.5 3.1-.1Zm13.9-7.3c.7.9 1.1 2 1 3.1V15h-2.3V9.2c.1-.7-.1-1.4-.6-2-.5-.5-1.1-.7-1.7-.6-.7 0-1.4.2-1.9.7-.5.6-.7 1.3-.6 2.1V15h-2.3V4.8h2.3V6c.8-1 1.9-1.5 3.2-1.4 1.1-.1 2.1.3 2.9 1Zm4.5 8.8c-.6-.7-.8-1.6-.8-2.5V6.7h-1.6V4.8h1.6V2.4h2.3v2.4h2.9v1.9h-2.9v4.7c0 .5.1 1 .4 1.3.3.3.8.5 1.2.4.4 0 .8-.1 1.1-.2v2c-.6.1-1.3.2-1.9.2-.8.2-1.6-.1-2.3-.7Zm6.2-11.5c-.3-.2-.4-.6-.4-.9 0-.4.1-.7.4-.9.3-.2.6-.4 1-.4s.7.1 1 .4c.3.2.4.6.4.9 0 .3-.1.7-.4.9-.3.3-.6.4-1 .4s-.7-.1-1-.4Zm-.1 1.9h2.3V15h-2.3V4.8Zm13 .8c.7.9 1.1 2 1 3.1V15h-2.3V9.2c.1-.7-.1-1.4-.6-2-.5-.5-1.1-.7-1.7-.6-.7 0-1.4.2-1.9.7-.5.6-.7 1.3-.6 2.1V15h-2.3V4.8h2.3V6c.8-1 1.9-1.5 3.2-1.4 1-.1 2.1.3 2.9 1Zm10.6 6.6c.1-.2.2-.5.2-.7h2.3c-.1 1-.5 1.9-1.2 2.5-.5.4-1 .7-1.7.9-.7.2-1.4.3-2.1.3-1 0-2.1-.2-3-.7-.8-.4-1.5-1.1-1.8-2-.4-.8-.5-1.7-.5-2.7 0-.5 0-1 .1-1.4.1-.4.2-.8.4-1.2.4-.8 1-1.5 1.8-2 1.8-.9 4-.9 5.8 0 .8.5 1.4 1.2 1.8 2 .2.5.3 1 .4 1.5.1.6.1 1.2.1 1.8h-8.1c0 .5.1 1 .3 1.5.2.5.6.8 1 1.1.5.3 1.1.4 1.7.4.4 0 .8 0 1.2-.2.3-.1.6-.3.9-.5.2-.2.3-.4.4-.6Zm-5.2-4.3c-.1.3-.2.7-.3 1h5.7c0-.4-.1-.7-.2-1.1-.2-.4-.6-.8-1-1-.5-.3-1-.4-1.6-.3-1.1-.1-2.1.4-2.6 1.4Zm18-2.3c.7.9 1.1 2 1 3.1V15H143V9.2c.1-.7-.1-1.4-.6-2-.4-.5-1.1-.7-1.7-.6-.7 0-1.4.2-1.9.7-.5.6-.7 1.3-.6 2.1V15h-2.3V4.8h2.3V6c.8-1 1.9-1.5 3.2-1.4 1-.1 2.1.3 2.8 1Zm4.5 8.8c-.6-.7-.8-1.6-.8-2.5V6.7h-1.6V4.8h1.6V2.4h2.3v2.4h2.9v1.9h-2.9v4.7c0 .5.1 1 .4 1.3.3.3.8.5 1.2.4.4 0 .8 0 1.2-.2v2c-.6.1-1.3.2-1.9.2-.8.2-1.7-.1-2.4-.7ZM163.9 9v6h-2.3v-1.1c-.9 1-2.2 1.5-3.5 1.4-.8 0-1.6-.1-2.3-.4-.6-.3-1-.7-1.3-1.3-.2-.4-.3-.9-.3-1.4 0-.5.1-.9.2-1.3.3-.7 1-1.3 1.8-1.6 1-.3 2.1-.5 3.2-.4h2.1v-1c0-.2-.1-.4-.2-.5-.3-.7-1-1-2.1-1-.5 0-.9.1-1.4.2-.3.1-.6.4-.8.7V8h-2.3c0-.5.1-1 .3-1.5.6-1.3 2-2 4.3-2 .9 0 1.9.1 2.7.5.7.3 1.2.9 1.5 1.6.3.8.4 1.6.4 2.4Zm-2.3 1.6v-.1h-2c-.6 0-1.3 0-1.9.2-.6.1-1.1.6-1.1 1.3 0 .2 0 .4.1.6.1.3.4.5.7.6.4.1.8.2 1.2.2.6 0 1.1-.1 1.7-.4.4-.2.8-.6 1-1 .2-.4.3-.9.3-1.4ZM166.1.3h2.3V15h-2.3V.3ZM23.9 56.7c-.9 0-1.7 0-2.4-.1-3-.2-5.9-.8-8.8-1.7-1.4-.4-2.7-1-4-1.6-1.7-.8-3.2-1.7-4.8-2.7-1.4-.9-2.7-2-4-3.1V0h47.9v17.6h-4V4H4v41.7l.2.1c1.4 1.1 3 2.1 4.6 3 1.3.7 2.6 1.3 4 1.8 1.6.6 3.2 1 4.8 1.4 1.3.3 2.7.5 4 .5.8.1 1.6.1 2.4.1.8 0 1.6 0 2.4-.1 1.3-.1 2.7-.3 4-.5 1.6-.3 3.2-.8 4.8-1.4 3.1-1.2 6-2.8 8.6-4.9l.2-.1v-6.5h4v8.4c-1.3 1.1-2.6 2.2-4 3.1-1.5 1-3.1 1.9-4.8 2.7-1.3.6-2.6 1.1-4 1.6-1.6.5-3.2.9-4.8 1.2-1.3.2-2.7.4-4 .5-.8.1-1.6.1-2.5.1Z" style="fill-rule:nonzero" transform="matrix(1 0 0 1 .211 .087)"/><path d="m149.097 53.71-2.986 7h-2.4l1.9-4.3-1.453-3.545c.893.198 1.741.372 2.52.511l.233.633.212-.556c.74.124 1.405.213 1.974.257ZM102.206 47.88a4.846 4.846 0 0 1 1.205-1.07c1.8-.9 4-.9 5.8 0l.097.061c-2.698.4-5.037.73-7.102 1.008Z"/><path d="m147.123 53.453 2.688-7.044h2.4l-3.114 7.301a22.925 22.925 0 0 1-1.974-.257ZM75.111 50.551V46.41h2.3v1.1c.8-1 1.9-1.5 3.2-1.4 1.1-.1 2.1.3 2.9 1.1.57.732.94 1.596 1.005 2.485-.748.06-1.525.121-2.349.191a2.682 2.682 0 0 0-.556-1.076c-.4-.5-1.1-.7-1.7-.6-.7 0-1.4.2-1.9.7a2.6 2.6 0 0 0-.61 1.413 536.8 536.8 0 0 0-2.29.23ZM130.511 49.225V46.41h2.3v3.48c-.833-.239-1.608-.463-2.3-.664ZM109.308 46.871a4.95 4.95 0 0 1 1.703 1.938c.2.5.4 1 .4 1.5.1.6.1 1.2.1 1.8h-8.1c0 .5.1 1 .3 1.4.2.5.6.8 1 1.1.5.3 1.1.4 1.7.4.4 0 .8-.1 1.2-.2.3-.1.6-.3.9-.5.2-.1.3-.4.4-.6.1-.2.2-.5.2-.7h2.3c-.1 1-.5 1.9-1.2 2.5-.5.4-1 .7-1.7.9-.7.2-1.4.3-2.1.3-1 0-2.1-.2-3-.7-.8-.4-1.5-1.2-1.8-2-.3-.8-.5-1.7-.5-2.6 0-.5 0-1 .1-1.4.1-.4.2-.8.4-1.2.165-.329.363-.64.595-.93 2.065-.278 4.404-.609 7.102-1.008Zm-5.597 2.538c-.1.3-.2.7-.3 1h5.7c0-.4-.1-.7-.2-1.1-.2-.4-.6-.8-1-1-.5-.3-1-.4-1.6-.4-1.1 0-2.1.5-2.6 1.5ZM91.294 49.144l-1.083-2.735h2.5l.923 2.507c-.822.085-1.596.16-2.34.228ZM130.275 43.916c-.106-.427.006-.91.336-1.307.3-.3.6-.4 1-.4s.7.1 1 .4c.3.2.4.6.4.9 0 .046-.002.095-.008.145-.873.076-1.782.163-2.728.262ZM86.711 49.523V46.41h2.3v2.932c-.772.064-1.53.123-2.3.182Z"/><path d="M84.516 49.694c.015.204.014.41-.005.615v6.3h-2.3v-5.8c.044-.31.03-.622-.044-.924.824-.07 1.601-.132 2.35-.19ZM77.401 50.322c-.023.22-.02.45.01.687v5.7h-2.3v-6.158a536.8 536.8 0 0 1 2.29-.229ZM100.12 48.155l-3.309 8.354h-2.6l-2.917-7.365c.744-.069 1.518-.143 2.34-.228l1.877 5.093 2.038-5.533c.806-.097 1.66-.203 2.571-.32ZM132.811 49.888v6.621h-2.3v-7.284c.692.201 1.467.425 2.3.663ZM89.011 49.341v7.168h-2.3v-6.986c.77-.059 1.528-.118 2.3-.182ZM135.811 50.734V48.31h-1.6v-1.9h1.6v-2.4h2.3v2.5h2.9v1.9h-2.9v2.953a250.96 250.96 0 0 1-2.3-.628ZM116.456 46.702a2.88 2.88 0 0 1 1.755-.393c.4-.1.7-.1 1.1 0v.752c-.928-.118-1.885-.237-2.855-.359ZM121.056 47.287a2.71 2.71 0 0 1 .855-.578c.7-.3 1.5-.5 2.3-.5.8 0 1.6.1 2.3.5.6.3 1.1.8 1.4 1.4.055.137.102.274.142.412a22.576 22.576 0 0 0-.613-.164c-1.592-.39-3.833-.73-6.384-1.07Z"/><path d="M128.053 48.521c.105.362.158.725.158 1.088h-2c0-.3-.1-.6-.2-.9-.1-.3-.4-.5-.7-.6-.3-.2-.7-.2-1.1-.2-.8 0-1.4.2-1.6.7-.1.2-.1.3-.1.5 0 .1 0 .3.1.4.1.2.3.4.5.5.3.1.5.2.8.3.3.1.7.2 1.2.3.7.2 1.4.4 2.1.8.5.3.9.7 1.2 1.2.1.4.2.8.2 1.1 0 .5-.1.9-.2 1.3-.3.6-.9 1.2-1.5 1.4-.8.3-1.7.5-2.6.5-.8 0-1.7-.2-2.5-.6-.7-.3-1.2-.9-1.5-1.5-.2-.5-.3-1.1-.3-1.7h2.2c0 .3.1.7.2 1 .4.7 1.2 1.1 2 1 1 0 1.6-.3 1.9-.8.1-.2.1-.3.1-.5s0-.4-.1-.5c-.1-.2-.3-.4-.5-.5-.3-.1-.5-.2-.8-.3-.3-.1-.8-.2-1.3-.3-.7-.1-1.4-.4-2-.7-.5-.3-.9-.7-1.2-1.2-.458-1.069-.217-2.254.545-3.022 2.551.34 4.792.68 6.384 1.07.147.036.354.092.613.164ZM144.158 52.865l-2.647-6.456h2.6l2.567 6.967a62.592 62.592 0 0 1-2.52-.51ZM138.111 51.362v1.747c0 .5.1 1 .4 1.3.3.3.8.5 1.2.4.4 0 .8 0 1.2-.2v1.9c-.6.1-1.3.2-1.9.2-.9.1-1.8-.2-2.4-.8-.6-.7-.8-1.6-.8-2.5v-2.675c.752.21 1.523.42 2.3.628ZM119.311 47.061v1.248c-.3-.1-.7-.1-1-.1-.8-.1-1.5.2-2 .8-.5.7-.7 1.5-.7 2.3v5.1h-2.4v-10h.951c.45.06.901.117 1.35.174v1.026a2.97 2.97 0 0 1 .944-.907c.97.122 1.927.241 2.855.36ZM133.003 43.654c-.028.274-.138.586-.392.755-.3.3-.6.4-1 .4-.3 0-.7-.1-1-.3a1.261 1.261 0 0 1-.336-.593c.946-.099 1.855-.186 2.728-.262ZM97.55 48.476l.761-2.067h2.5l-.69 1.746c-.913.118-1.766.224-2.572.321Z"/><path d="M114.162 46.41h1.35v.173l-1.35-.174ZM86.926 44.523l-.015-.014c-.3-.2-.4-.6-.4-.9 0-.4.1-.7.4-.9.3-.2.6-.4 1-.4s.7.1 1 .4c.3.2.4.6.4.9 0 .07-.005.146-.018.223-.852.234-1.667.471-2.367.691Z"/><path d="M89.293 43.832c-.04.253-.152.524-.382.677-.3.3-.6.4-1 .4-.39-.098-.78-.195-.985-.386.7-.22 1.515-.457 2.367-.69ZM61.611 51.68v-9.77h2.4v9.6l-.007.065c-.727.038-1.514.073-2.393.105Z"/><path d="M73.011 50.77v.94c.1 1.4-.4 2.9-1.4 3.9-1.2 1-2.8 1.4-4.3 1.3-1.6.1-3.1-.4-4.3-1.3-1-1.1-1.5-2.5-1.4-3.9v-.03c.88-.032 1.666-.067 2.393-.105-.078.878.222 1.751.807 2.434.7.6 1.6.9 2.5.8.9.1 1.8-.2 2.5-.8.6-.7.9-1.6.8-2.5v-.485l2.4-.255Z"/><path d="M70.611 51.024V41.91h2.4v8.86l-2.4.255ZM121.228 29.865v6h-2.3v-1.1c-.9 1-2.2 1.5-3.5 1.4-.8 0-1.6-.1-2.3-.4-.6-.2-1-.7-1.3-1.3-.2-.4-.3-.9-.3-1.4 0-.5.1-.9.2-1.3.3-.8 1-1.3 1.8-1.6 1-.3 2.1-.5 3.2-.4h2.1v-1.1c0-.2-.1-.4-.2-.5-.3-.7-1-1-2.1-1-.5 0-.9.1-1.4.2-.3.1-.6.4-.8.7-.1.2-.1.4-.1.7h-2.3c0-.5.1-1 .3-1.5.6-1.3 2-2 4.3-2 .9 0 1.9.1 2.7.5.7.3 1.2.9 1.5 1.6.4.8.6 1.7.5 2.5Zm-2.3 1.6-2-.1c-.6 0-1.3 0-1.9.2-.4.1-.8.3-1 .7-.1.2-.1.4-.1.6 0 .2 0 .4.1.6.2.3.4.5.7.6.4.1.8.2 1.2.2.6 0 1.1-.1 1.7-.3.4-.2.8-.6 1-1 .2-.5.3-1 .3-1.5ZM109.728 21.165v14.6h-2.2v-1.2c-.4.5-.9.9-1.4 1.1-.6.3-1.3.4-1.9.4-.9 0-1.8-.2-2.6-.7-.7-.4-1.3-1.1-1.6-1.9-.2-.4-.3-.9-.4-1.3-.1-.5-.2-1-.2-1.5 0-1 .2-1.9.6-2.8.3-.8.9-1.4 1.6-1.9.8-.5 1.7-.7 2.6-.7.7 0 1.3.1 1.9.4.6.2 1.1.6 1.4 1.1v-5.6h2.2Zm-2.3 9.3c.1-.8-.2-1.7-.7-2.3-.5-.5-1.2-.8-2-.8-.5 0-1.1.1-1.5.4-.4.2-.8.6-1 1.1-.2.6-.4 1.3-.3 2 0 .7.1 1.3.3 1.9.2.5.6.9 1 1.1.5.3 1 .4 1.5.4.8 0 1.5-.3 2-.8.5-.7.8-1.5.7-2.3v-.7ZM95.228 25.665h2.3v10.1h-2.3zM95.428 23.765c-.5-.5-.5-1.3 0-1.9.3-.2.6-.4 1-.4s.7.1 1 .4c.3.2.4.6.4.9 0 .3-.1.7-.4.9-.3.3-.6.4-1 .4-.4.1-.8-.1-1-.3ZM93.628 25.665v2c-.3-.1-.7-.1-1-.1-.8-.1-1.5.2-2 .8-.5.7-.7 1.5-.7 2.3v5.1h-2.3v-10.1h2.3v1.2c.6-.9 1.6-1.4 2.7-1.3.4-.1.7 0 1 .1ZM77.628 35.365c-.8-.5-1.4-1.2-1.8-2-.4-.8-.5-1.7-.5-2.6 0-.9.2-1.8.5-2.6.4-.8 1-1.5 1.8-2 .9-.5 1.9-.8 2.9-.8s2.1.2 3 .7c.8.5 1.4 1.2 1.8 2 .3.8.5 1.7.5 2.6 0 .9-.2 1.8-.6 2.7-.4.8-1 1.5-1.8 2-.9.5-2 .7-3 .7-.9 0-1.9-.2-2.8-.7Zm4.5-1.6c.4-.2.8-.6.9-1.1.2-.6.3-1.3.3-1.9 0-.7-.1-1.3-.3-2-.2-.5-.5-.8-.9-1.1-1-.5-2.1-.5-3.1 0-.4.3-.7.6-.9 1.1-.4 1.3-.4 2.6 0 3.9.2.4.5.8.9 1.1.9.5 2.1.5 3.1 0ZM71.128 21.165h2.3v14.6h-2.3zM61.628 21.165h7.6v2.1h-5.2v4.1h5.2v2.1h-5.2v6.4h-2.4v-14.7Z"/><path d="M23.9 47.9c-2.2 0-4.3-.3-6.4-.9-1.7-.5-3.3-1.1-4.8-2-1.4-.8-2.8-1.8-4-2.8V8.8h4v31.4l.2.1c1.4 1 3 1.9 4.6 2.5 1.3.5 2.6.8 4 1 .8.1 1.6.2 2.4.2.8 0 1.6 0 2.4-.2 1.4-.2 2.7-.5 4-1 1.6-.6 3.2-1.4 4.6-2.5l.2-.1V8.8h4v33.3c-1.2 1.1-2.6 2.1-4 2.8-1.5.9-3.1 1.5-4.8 2-1.3.4-2.6.6-4 .8-.8.1-1.6.2-2.4.2Z" style="fill-rule:nonzero" transform="matrix(1 0 0 1 .211 .087)"/><path d="M21.5 12.8v9.6h8.8v4h-8.8V39c-1.4-.1-2.7-.4-4-.8V8.8h12.8v4h-8.8Z" style="fill-rule:nonzero" transform="matrix(1 0 0 1 .211 .087)"/></svg>